<?xml version="1.0" encoding="UTF-8" standalone="no"?>
<!-- Created with Inkscape (http://www.inkscape.org/) -->

<svg
   width="60mm"
   height="60mm"
   viewBox="0 0 60.000001 60"
   version="1.1"
   id="svg418"
   inkscape:version="1.2.2 (732a01da63, 2022-12-09)"
   sodipodi:docname="haroka-logo-only.svg"
   xmlns:inkscape="http://www.inkscape.org/namespaces/inkscape"
   xmlns:sodipodi="http://sodipodi.sourceforge.net/DTD/sodipodi-0.dtd"
   xmlns="http://www.w3.org/2000/svg"
   xmlns:svg="http://www.w3.org/2000/svg">
  <sodipodi:namedview
     id="namedview420"
     pagecolor="#ffffff"
     bordercolor="#000000"
     borderopacity="0.25"
     inkscape:showpageshadow="2"
     inkscape:pageopacity="0.0"
     inkscape:pagecheckerboard="0"
     inkscape:deskcolor="#d1d1d1"
     inkscape:document-units="mm"
     showgrid="false"
     inkscape:zoom="0.72515432"
     inkscape:cx="168.92956"
     inkscape:cy="280.62992"
     inkscape:window-width="1920"
     inkscape:window-height="1001"
     inkscape:window-x="-9"
     inkscape:window-y="-9"
     inkscape:window-maximized="1"
     inkscape:current-layer="layer1" />
  <defs
     id="defs415" />
  <g
     inkscape:label="Layer 1"
     inkscape:groupmode="layer"
     id="layer1"
     transform="translate(33.082962,-74.308134)">
    <path
       id="path248"
       style="fill:#000000;stroke-width:0.264583"
       d="m -2.7249634,75.359516 c -2.645467,0.002 -5.298552,0.97986 -7.233151,2.82515 -2.6662976,2.54322 -3.8737136,5.84953 -3.8881336,10.64741 l -0.0052,1.74512 -5.463232,0.15503 c -4.098723,0.11621 -5.518422,0.24207 -5.684408,0.50384 -0.249656,0.39372 -0.310705,40.501244 -0.06304,41.425384 l 0.15968,0.59531 H -3.1228994 18.65665 l 0.198438,-0.59531 c 0.109193,-0.32742 0.19869,-9.74835 0.198954,-20.93567 5.82e-4,-19.588894 -0.01747,-20.354054 -0.495577,-20.703654 -0.380132,-0.27791 -1.693569,-0.36329 -5.605343,-0.36329 H 7.8443896 l -0.0093,-2.05052 c -0.01245,-2.76516 -0.604733,-5.91036 -1.430404,-7.59798 -0.762803,-1.55911 -2.962568,-3.78126 -4.533057,-4.57905 -1.42504397,-0.72391 -3.009339,-1.07325 -4.596618,-1.07177 z m -0.119373,2.50321 c 1.99480003,0.01 3.966971,0.78328 5.39812,2.40915 1.645519,1.86941 2.20673,3.62627 2.324406,7.27811 l 0.100252,3.10885 h -7.980908 -7.9809076 l 0.08733,-3.37343 c 0.07697,-2.97871 0.167849,-3.54572 0.778247,-4.84725 1.3938786,-2.9721 4.3579806,-4.58965 7.2734576,-4.57543 z m 10.688753,15.17736 h 3.1967044 c 1.758377,0 3.157364,0.10513 3.108855,0.23358 -0.138504,0.36678 -6.7473774,7.094334 -12.1816864,12.400284 -2.72000697,2.65576 -4.981356,4.82758 -5.025016,4.82658 -0.04365,-0.001 -3.988124,-3.83056 -8.7658726,-8.51008 -6.840734,-6.700084 -8.59982,-8.557254 -8.275981,-8.738484 0.226177,-0.12656 1.694452,-0.19581 3.26285,-0.15451 l 2.852022,0.0749 0.0832,1.32085 c 0.09321,1.47879 0.62094,2.25102 1.538924,2.25102 0.888984,0 1.487473,-1.05791 1.378211,-2.43706 l -0.08992,-1.13481 8.0036456,-0.0568 8.003646,-0.0563 v 1.40457 c 0,1.02492 0.130676,1.52331 0.483691,1.84278 1.210764,1.09573 2.426725,0.0923 2.426725,-2.00246 z m 8.4790694,2.32699 -0.02067,16.695634 c -0.01581,12.79004 -0.0945,16.68751 -0.336931,16.65841 -0.174053,-0.0209 -1.923604,-1.66256 -3.888134,-3.64784 -1.964529,-1.98528 -5.7393254,-5.7028 -8.3881194,-8.26151 l -4.815727,-4.65243 7.593852,-7.51375 c 4.1767614,-4.13251 8.1030784,-7.910434 8.7250494,-8.395874 z m -38.61418,0.0543 c 0.450172,0 16.9877276,16.556304 16.8739046,16.893034 -0.05516,0.16319 -3.831025,3.92987 -8.3907016,8.37055 -4.559677,4.44068 -8.399447,8.07392 -8.532813,8.07392 -0.144352,0 -0.242362,-6.7455 -0.242362,-16.66875 0,-11.9837 0.08195,-16.668754 0.291972,-16.668754 z m 19.1466346,1.08779 c -0.475641,0.0275 -0.942882,0.21737 -1.474329,0.57413 -2.051654,1.37726 -2.322553,3.577234 -0.658358,5.341794 0.769485,0.8159 1.040267,0.93379 2.147156,0.93379 3.74886103,0 4.855998,-4.720264 1.512569,-6.449214 -0.566861,-0.29314 -1.051397,-0.42805 -1.527038,-0.4005 z m 12.230778,11.876804 c -2.174087,0 -4.042815,2.55886 -3.366203,4.60902 0.369986,1.12106 1.621255,2.45165 2.456697,2.61276 1.59015,0.30665 2.8152644,-0.0793 3.8648814,-1.21801 1.938629,-2.10316 0.0185,-6.00377 -2.9553754,-6.00377 z m -24.5618086,0.001 c -3.410994,0.004 -4.692463,5.08685 -1.736844,6.88899 2.157092,1.31526 5.131154,-0.0661 5.642032,-2.62052 0.379963,-1.8998 -1.789365,-4.27047 -3.905188,-4.26847 z m 24.5447546,2.67477 c 1.0557884,-0.002 1.5455434,1.13027 0.740007,1.9358 -0.5375,0.53748 -0.727096,0.52357 -1.284159,-0.092 -0.632621,-0.69904 -0.451154,-1.7177 0.325561,-1.8278 0.0752,-0.0107 0.148206,-0.0159 0.218591,-0.016 z m -24.1959386,0.0279 c 0.318645,0.039 0.625951,0.2662 0.771529,0.66249 0.149535,0.40706 0.09149,0.71208 -0.188618,0.99219 -0.949437,0.94944 -2.0662,0.0148 -1.421619,-1.18959 0.190117,-0.35524 0.520064,-0.50406 0.838708,-0.46509 z m 11.6437336,3.11712 c 0.359955,0 4.84602,4.11936 10.400916,9.55032 2.473851,2.41866 5.0039334,4.84494 5.6223954,5.39192 0.618464,0.54698 1.12448,1.07582 1.12448,1.17512 0,0.0992 -7.6031404,0.17444 -16.8956104,0.16744 l -16.8956086,-0.0129 2.062406,-2.24896 c 1.134154,-1.23693 2.404707,-2.54662 2.8236,-2.91042 0.418893,-0.3638 3.174519,-3.01294 6.1236566,-5.88698 2.949141,-2.87403 5.484453,-5.22552 5.633765,-5.22552 z m 0.33228,6.11952 c -0.473087,-0.0296 -0.927909,0.0977 -1.465544,0.37569 -2.229639,1.15299 -2.410671,4.28942 -0.341581,5.91695 0.842167,0.66245 2.192793,0.71489 3.419429,0.13281 2.49118303,-1.18214 2.47002803,-4.42158 -0.03824,-5.85959 -0.610022,-0.34973 -1.100978,-0.5363 -1.574064,-0.56586 z"
       sodipodi:nodetypes="sscccscccccccsccssssscccccsscssscsscccsscccsssccssscccccssssssssssssssssscssccssscssssssssscccsssssssss" />
  </g>
</svg>
