<?xml version="1.0" encoding="UTF-8" standalone="no"?>
<!-- Created with Inkscape (http://www.inkscape.org/) -->

<svg
   width="60mm"
   height="60mm"
   viewBox="0 0 60.000001 60"
   version="1.1"
   id="svg418"
   inkscape:version="1.2.2 (732a01da63, 2022-12-09)"
   sodipodi:docname="logo-only.svg"
   inkscape:export-filename="logo-only.png"
   inkscape:export-xdpi="96"
   inkscape:export-ydpi="96"
   xmlns:inkscape="http://www.inkscape.org/namespaces/inkscape"
   xmlns:sodipodi="http://sodipodi.sourceforge.net/DTD/sodipodi-0.dtd"
   xmlns="http://www.w3.org/2000/svg"
   xmlns:svg="http://www.w3.org/2000/svg">
  <sodipodi:namedview
     id="namedview420"
     pagecolor="#ffffff"
     bordercolor="#000000"
     borderopacity="0.25"
     inkscape:showpageshadow="2"
     inkscape:pageopacity="0.0"
     inkscape:pagecheckerboard="0"
     inkscape:deskcolor="#d1d1d1"
     inkscape:document-units="mm"
     showgrid="false"
     inkscape:zoom="0.72515432"
     inkscape:cx="-537.12705"
     inkscape:cy="280.62992"
     inkscape:window-width="1920"
     inkscape:window-height="1001"
     inkscape:window-x="-9"
     inkscape:window-y="-9"
     inkscape:window-maximized="1"
     inkscape:current-layer="layer1" />
  <defs
     id="defs415" />
  <g
     inkscape:label="Layer 1"
     inkscape:groupmode="layer"
     id="layer1"
     transform="translate(33.082962,-74.308134)">
    <path
       id="path248"
       style="fill:#ffffff;stroke-width:0.215137"
       d="m -2.791882,80.769478 c -2.1510779,0.0017 -4.3083503,0.796742 -5.8814092,2.297181 -2.1680148,2.067939 -3.1497868,4.75636 -3.1615128,8.657604 l -0.0042,1.41899 -4.442253,0.126058 c -3.332748,0.09449 -4.487131,0.19683 -4.622097,0.40968 -0.203001,0.320141 -0.252641,32.932309 -0.05125,33.683749 l 0.129839,0.48405 H -3.1154492 14.593903 l 0.161354,-0.48405 c 0.08878,-0.26624 0.161558,-7.92657 0.161772,-17.02319 4.74e-4,-15.928084 -0.0142,-16.550251 -0.402963,-16.834517 C 14.204975,93.27906 13.136994,93.209635 9.9562591,93.209635 H 5.8022551 L 5.7946951,91.54232 C 5.7845675,89.293918 5.3029716,86.736498 4.6316034,85.364263 4.0113542,84.096522 2.2226849,82.289651 0.94569147,81.640953 -0.21303803,81.052329 -1.5012574,80.768273 -2.7919033,80.769478 Z m -0.097065,2.035405 c 1.6220086,0.008 3.22561687,0.6369 4.3893106,1.958925 1.3380016,1.520051 1.7943326,2.948586 1.8900172,5.917965 l 0.081517,2.527862 h -6.4894231 -6.4894239 l 0.07102,-2.742998 c 0.06258,-2.422043 0.136481,-2.883089 0.632807,-3.941387 1.1333882,-2.41667 3.543555,-3.731929 5.914183,-3.720367 z m 8.691222,12.340991 h 2.5992992 c 1.429769,0 2.5673108,0.08549 2.5278668,0.189929 -0.112621,0.298235 -5.4864162,5.768527 -9.9051529,10.082897 -2.2116876,2.15944 -4.0504321,3.92539 -4.0859328,3.92458 -0.035492,-8.1e-4 -3.2428166,-3.1147 -7.1276923,-6.9197 -5.562326,-5.447962 -6.992671,-6.958062 -6.729353,-7.105423 0.183909,-0.102912 1.377791,-0.159217 2.653084,-0.125635 l 2.319032,0.0609 0.06766,1.074006 c 0.07579,1.202433 0.504898,1.830346 1.251329,1.830346 0.7228478,0 1.2094898,-0.860206 1.1206468,-1.981618 l -0.07312,-0.922734 6.5079117,-0.04619 6.5079117,-0.04578 v 1.142082 c 0,0.833381 0.1062553,1.23863 0.3932981,1.498398 0.9844943,0.890958 1.9732147,0.07505 1.9732147,-1.628238 z m 6.894487,1.892118 -0.0168,13.575528 c -0.01285,10.39982 -0.07684,13.56891 -0.273965,13.54525 -0.141525,-0.017 -1.564117,-1.35185 -3.1615125,-2.96611 -1.5973946,-1.61428 -4.6667509,-4.63706 -6.820534,-6.7176 l -3.9157561,-3.78296 6.1747006,-6.10958 c 3.396197,-3.36021 6.588757,-6.432116 7.094493,-6.826837 z m -31.397899,0.04415 c 0.366042,0 13.8130332,13.462228 13.7204818,13.736028 -0.044851,0.13268 -3.115078,3.19544 -6.8226338,6.80625 -3.707557,3.61079 -6.829745,6.56506 -6.938188,6.56506 -0.117372,0 -0.197069,-5.48489 -0.197069,-13.55366 0,-9.74418 0.06664,-13.553678 0.237409,-13.553678 z m 15.5684802,0.884502 c -0.3867524,0.02236 -0.7666746,0.176747 -1.198804,0.466835 -1.6682374,1.119876 -1.8885108,2.908711 -0.5353229,4.343501 0.6256824,0.66343 0.8458601,0.75929 1.745892,0.75929 3.04826777,0 3.94850127,-3.838132 1.2298977,-5.243973 -0.4609252,-0.238357 -0.8549102,-0.348055 -1.2416628,-0.325653 z m 9.9450705,9.657236 c -1.7677901,0 -3.2872873,2.08066 -2.7371215,3.74769 0.3008424,0.91155 1.3182722,1.99348 1.9975854,2.12448 1.2929802,0.24935 2.2891432,-0.0644 3.1426059,-0.99039 1.5763355,-1.71012 0.015038,-4.88179 -2.4030698,-4.88178 z m -19.9716587,8.3e-4 c -2.773542,0.004 -3.815528,4.1362 -1.412259,5.60156 1.753971,1.06946 4.172235,-0.0538 4.5876388,-2.13079 0.308955,-1.54477 -1.4549648,-3.4724 -3.1753798,-3.47077 z m 19.9577917,2.1749 c 0.858481,-0.001 1.2567098,0.91904 0.6017133,1.57404 -0.4370511,0.43703 -0.5912151,0.42572 -1.0441733,-0.0748 -0.5143957,-0.56841 -0.3668416,-1.3967 0.2647197,-1.48622 0.061146,-0.01 0.120509,-0.013 0.1777403,-0.0131 z m -19.6741617,0.0227 c 0.259096,0.0317 0.508972,0.21644 0.627344,0.53868 0.12159,0.33098 0.07439,0.57901 -0.153369,0.80677 -0.772005,0.77201 -1.680066,0.012 -1.155945,-0.96729 0.154588,-0.28885 0.422874,-0.40986 0.68197,-0.37816 z m 9.4677332,2.53459 c 0.292686,0 3.94038787,3.34952 8.4571759,7.76553 2.0115337,1.96666 4.0687905,3.93952 4.5716731,4.38428 0.5028848,0.44475 0.9143348,0.87476 0.9143348,0.9555 0,0.0806 -6.1822528,0.14184 -13.7381309,0.13615 l -13.7381301,-0.0108 1.67698,-1.82868 c 0.922202,-1.00577 1.955312,-2.0707 2.295922,-2.36651 0.340608,-0.29581 2.58126,-2.44988 4.9792575,-4.78681 2.3980004,-2.33694 4.4595093,-4.24897 4.5809177,-4.24897 z m 0.2701829,4.97589 c -0.3846757,-0.024 -0.7544998,0.0794 -1.1916607,0.30548 -1.8129599,0.93752 -1.9601605,3.48781 -0.2777458,4.81118 0.6847815,0.53866 1.7830002,0.58129 2.7804006,0.108 2.02562667,-0.96121 2.00842507,-3.59526 -0.031094,-4.76453 -0.4960201,-0.28438 -0.8952254,-0.43608 -1.2799,-0.46012 z"
       sodipodi:nodetypes="sscccscccccccsccssssscccccsscssscsscccsscccsssccssscccccssssssssssssssssscssccssscssssssssscccsssssssss" />
  </g>
</svg>
